<svg width="17" height="17" viewBox="0 0 17 17" fill="none" xmlns="http://www.w3.org/2000/svg">
<g clip-path="url(#clip0_5_185)">
<path d="M11.6003 11.6227V7.22271C11.5986 6.66629 11.3767 6.13317 10.9833 5.73972C10.5899 5.34628 10.0567 5.12446 9.50032 5.12271H3.50032V4.55604C3.5003 3.73732 3.82416 2.95184 4.4012 2.37105C4.97825 1.79026 5.76162 1.46132 6.58032 1.45604H12.0737C12.8958 1.45604 13.6843 1.78265 14.2657 2.36401C14.847 2.94537 15.1737 3.73387 15.1737 4.55604V8.55604C15.1719 9.37131 14.8491 10.1531 14.2752 10.7321C13.7012 11.3111 12.9222 11.6406 12.107 11.6494L11.6003 11.6227ZM9.50032 4.12271C10.3225 4.12271 11.111 4.44931 11.6923 5.03068C12.2737 5.61204 12.6003 6.40053 12.6003 7.22271V10.556C13.0453 10.4408 13.4402 10.1828 13.7244 9.82148C14.0086 9.4602 14.1664 9.01565 14.1737 8.55604V4.55604C14.1719 3.99963 13.9501 3.4665 13.5566 3.07306C13.1632 2.67961 12.6301 2.4578 12.0737 2.45604H6.58032C6.09761 2.45545 5.62952 2.6217 5.25533 2.92664C4.88114 3.23158 4.62383 3.65648 4.52698 4.12937L9.50032 4.12271ZM6.75365 15.816C6.53584 15.8171 6.32109 15.7648 6.12817 15.6637C5.93525 15.5626 5.77004 15.4158 5.64698 15.236L5.04698 14.3894C5.0262 14.3574 4.99745 14.3313 4.96355 14.3138C4.92965 14.2963 4.89178 14.2878 4.85365 14.2894H4.04032C3.63042 14.2938 3.22372 14.2169 2.84376 14.063C2.46379 13.9092 2.11811 13.6816 1.8267 13.3933C1.5353 13.105 1.30397 12.7617 1.1461 12.3834C0.988234 12.0051 0.906959 11.5993 0.906982 11.1894V7.22271C0.906959 6.81279 0.988234 6.40694 1.1461 6.02864C1.30397 5.65034 1.5353 5.30711 1.8267 5.01881C2.11811 4.7305 2.46379 4.50286 2.84376 4.34904C3.22372 4.19523 3.63042 4.1183 4.04032 4.12271H9.53365C10.3558 4.12271 11.1443 4.44931 11.7257 5.03068C12.307 5.61204 12.6337 6.40053 12.6337 7.22271V11.1894C12.6337 12.0115 12.307 12.8 11.7257 13.3814C11.1443 13.9628 10.3558 14.2894 9.53365 14.2894H8.65365C8.61562 14.2885 8.57798 14.2972 8.54419 14.3146C8.51041 14.3321 8.48156 14.3578 8.46032 14.3894L7.86032 15.236C7.73726 15.4158 7.57204 15.5626 7.37913 15.6637C7.18621 15.7648 6.97146 15.8171 6.75365 15.816V15.816ZM4.04032 5.12271C3.76199 5.11918 3.48572 5.17085 3.22748 5.27472C2.96924 5.3786 2.73414 5.53262 2.53578 5.72788C2.33741 5.92315 2.17971 6.15579 2.07178 6.41237C1.96385 6.66894 1.90784 6.94436 1.90698 7.22271V11.1894C1.90517 11.4691 1.95926 11.7464 2.06608 12.0049C2.1729 12.2634 2.3303 12.498 2.52902 12.6949C2.72775 12.8917 2.96381 13.0469 3.22333 13.1513C3.48286 13.2557 3.76062 13.3072 4.04032 13.3027H4.85365C5.0526 13.3017 5.24881 13.3492 5.42534 13.4409C5.60188 13.5327 5.75345 13.666 5.86698 13.8294L6.46032 14.636C6.49338 14.6832 6.53727 14.7217 6.58832 14.7484C6.63936 14.7751 6.69606 14.7891 6.75365 14.7894V14.7894C6.81124 14.7891 6.86794 14.7751 6.91898 14.7484C6.97003 14.7217 7.01392 14.6832 7.04698 14.636L7.64032 13.7894C7.7582 13.6334 7.91168 13.5078 8.08795 13.4231C8.26423 13.3385 8.45818 13.2972 8.65365 13.3027H9.50032C10.0573 13.3027 10.5914 13.0815 10.9852 12.6876C11.3791 12.2938 11.6003 11.7597 11.6003 11.2027V7.22271C11.5986 6.66629 11.3767 6.13317 10.9833 5.73972C10.5899 5.34628 10.0567 5.12446 9.50032 5.12271H4.04032ZM4.42698 8.63604C4.30304 8.63604 4.18188 8.67279 4.07883 8.74165C3.97577 8.81051 3.89545 8.90838 3.84802 9.02289C3.80059 9.1374 3.78818 9.2634 3.81236 9.38496C3.83654 9.50652 3.89622 9.61819 3.98386 9.70583C4.0715 9.79347 4.18316 9.85315 4.30473 9.87733C4.42629 9.90151 4.55229 9.8891 4.6668 9.84167C4.78131 9.79424 4.87918 9.71392 4.94804 9.61086C5.0169 9.50781 5.05365 9.38665 5.05365 9.26271C5.05191 9.09704 4.98533 8.93865 4.86819 8.8215C4.75104 8.70436 4.59265 8.63777 4.42698 8.63604ZM6.76032 8.63604C6.63759 8.63368 6.51688 8.66741 6.41316 8.73305C6.30943 8.79869 6.22727 8.89335 6.17687 9.00527C6.12647 9.11719 6.11004 9.24145 6.12964 9.36262C6.14923 9.4838 6.20398 9.59655 6.28708 9.68688C6.37019 9.77721 6.478 9.84115 6.59712 9.87076C6.71624 9.90036 6.84144 9.89433 6.95716 9.85342C7.07289 9.8125 7.17405 9.7385 7.24809 9.64059C7.32213 9.54269 7.36579 9.4252 7.37365 9.30271C7.37813 9.21843 7.36572 9.13411 7.33716 9.0547C7.30859 8.97529 7.26444 8.90239 7.2073 8.84028C7.15016 8.77818 7.08119 8.72811 7.00443 8.69304C6.92767 8.65797 6.84467 8.63859 6.76032 8.63604V8.63604ZM9.08698 8.63604C8.96304 8.63604 8.84188 8.67279 8.73883 8.74165C8.63577 8.81051 8.55545 8.90838 8.50802 9.02289C8.46059 9.1374 8.44818 9.2634 8.47236 9.38496C8.49654 9.50652 8.55622 9.61819 8.64386 9.70583C8.7315 9.79347 8.84317 9.85315 8.96473 9.87733C9.08629 9.90151 9.21229 9.8891 9.3268 9.84167C9.44131 9.79424 9.53918 9.71392 9.60804 9.61086C9.6769 9.50781 9.71365 9.38665 9.71365 9.26271C9.71192 9.09704 9.64533 8.93865 9.52819 8.8215C9.41104 8.70436 9.25265 8.63777 9.08698 8.63604V8.63604Z" fill="#7E8299"/>
</g>
<defs>
<clipPath id="clip0_5_185">
<rect width="16" height="16" fill="white" transform="translate(0.0402832 0.63604)"/>
</clipPath>
</defs>
</svg>
