<svg width="16" height="16" viewBox="0 0 16 16" fill="none" xmlns="http://www.w3.org/2000/svg">
<path d="M7.99996 11.4667C7.91222 11.4672 7.82525 11.4504 7.74402 11.4172C7.6628 11.384 7.58892 11.3351 7.52663 11.2733L3.52663 7.27334C3.46447 7.21118 3.41516 7.13739 3.38152 7.05618C3.34788 6.97496 3.33057 6.88792 3.33057 6.80001C3.33057 6.62247 3.40109 6.45221 3.52663 6.32668C3.65216 6.20114 3.82243 6.13062 3.99996 6.13062C4.1775 6.13062 4.34776 6.20114 4.47329 6.32668L7.99996 9.85334L11.5266 6.32668C11.5888 6.26452 11.6626 6.21521 11.7438 6.18157C11.825 6.14793 11.9121 6.13062 12 6.13062C12.0879 6.13062 12.1749 6.14793 12.2561 6.18157C12.3373 6.21521 12.4111 6.26452 12.4733 6.32668C12.5355 6.38884 12.5848 6.46263 12.6184 6.54384C12.652 6.62506 12.6694 6.7121 12.6694 6.80001C12.6694 6.88792 12.652 6.97496 12.6184 7.05618C12.5848 7.13739 12.5355 7.21118 12.4733 7.27334L8.47329 11.2733C8.411 11.3351 8.33712 11.384 8.2559 11.4172C8.17467 11.4504 8.0877 11.4672 7.99996 11.4667Z" fill="#A1A5B7"/>
</svg>
