<svg width="20" height="20" viewBox="0 0 20 20" fill="none" xmlns="http://www.w3.org/2000/svg">
<path d="M15 10.8333H10.8333V15C10.8333 15.221 10.7455 15.433 10.5893 15.5893C10.433 15.7455 10.221 15.8333 10 15.8333C9.77899 15.8333 9.56703 15.7455 9.41075 15.5893C9.25447 15.433 9.16667 15.221 9.16667 15V10.8333H5.00001C4.77899 10.8333 4.56703 10.7455 4.41075 10.5893C4.25447 10.433 4.16667 10.221 4.16667 10C4.16667 9.779 4.25447 9.56704 4.41075 9.41075C4.56703 9.25447 4.77899 9.16668 5.00001 9.16668H9.16667V5.00001C9.16667 4.779 9.25447 4.56703 9.41075 4.41075C9.56703 4.25447 9.77899 4.16668 10 4.16668C10.221 4.16668 10.433 4.25447 10.5893 4.41075C10.7455 4.56703 10.8333 4.779 10.8333 5.00001V9.16668H15C15.221 9.16668 15.433 9.25447 15.5893 9.41075C15.7455 9.56704 15.8333 9.779 15.8333 10C15.8333 10.221 15.7455 10.433 15.5893 10.5893C15.433 10.7455 15.221 10.8333 15 10.8333Z" fill="#2884EF"/>
</svg>
