<svg width="17" height="16" viewBox="0 0 17 16" fill="none" xmlns="http://www.w3.org/2000/svg">
<path d="M8.3251 2.03604C7.21752 2.03604 6.13482 2.36448 5.21391 2.97981C4.29299 3.59515 3.57523 4.46975 3.15137 5.49301C2.72752 6.51628 2.61663 7.64225 2.8327 8.72855C3.04878 9.81484 3.58213 10.8127 4.3653 11.5958C5.14848 12.379 6.1463 12.9124 7.23259 13.1284C8.31889 13.3445 9.44486 13.2336 10.4681 12.8098C11.4914 12.3859 12.366 11.6681 12.9813 10.7472C13.5967 9.82632 13.9251 8.74362 13.9251 7.63604C13.9251 6.15083 13.3351 4.72645 12.2849 3.67624C11.2347 2.62604 9.81031 2.03604 8.3251 2.03604ZM8.3251 12.4546C7.36957 12.4546 6.43551 12.1712 5.64116 11.6401C4.84681 11.109 4.22787 10.3542 3.86268 9.47119C3.49749 8.5882 3.40247 7.61671 3.58964 6.67969C3.77682 5.74267 4.23777 4.88224 4.91417 4.2073C5.59056 3.53237 6.45198 3.07327 7.38941 2.88812C8.32683 2.70297 9.29811 2.80009 10.1803 3.16718C11.0625 3.53428 11.816 4.15485 12.3454 4.95035C12.8747 5.74584 13.1562 6.68051 13.1541 7.63604C13.1527 8.91635 12.6435 10.1438 11.7382 11.0492C10.8329 11.9545 9.60541 12.4637 8.3251 12.4651V12.4546ZM10.9297 7.63604C10.9297 7.73828 10.8891 7.83633 10.8168 7.90862C10.7445 7.98091 10.6465 8.02153 10.5443 8.02153H8.3251C8.22286 8.02153 8.12481 7.98091 8.05252 7.90862C7.98022 7.83633 7.93961 7.73828 7.93961 7.63604V4.46878C7.93961 4.36655 7.98022 4.2685 8.05252 4.1962C8.12481 4.12391 8.22286 4.0833 8.3251 4.0833C8.42734 4.0833 8.52539 4.12391 8.59768 4.1962C8.66997 4.2685 8.71059 4.36655 8.71059 4.46878V7.25055H10.5599C10.6594 7.25459 10.7535 7.29698 10.8224 7.36884C10.8914 7.4407 10.9298 7.53645 10.9297 7.63604Z" fill="#7E8299" stroke="#7E8299" stroke-width="0.431802" stroke-linejoin="round"/>
</svg>
